<?xml version="1.0" encoding="utf-8"?>
<!-- Generator: Adobe Illustrator 27.0.1, SVG Export Plug-In . SVG Version: 6.00 Build 0)  -->
<svg version="1.1" id="Calque_2_00000024708041712115653190000017160349466655834269_"
	 xmlns="http://www.w3.org/2000/svg" xmlns:xlink="http://www.w3.org/1999/xlink" x="0px" y="0px" viewBox="0 0 491 399.9"
	 style="enable-background:new 0 0 491 399.9;" xml:space="preserve">
<style type="text/css">
	.st0{fill-rule:evenodd;clip-rule:evenodd;fill:#CBB7A7;stroke:#000000;stroke-width:6;stroke-miterlimit:10;}
	.st1{fill-rule:evenodd;clip-rule:evenodd;fill:#F0AB93;}
	.st2{fill:#CBB7A7;stroke:#000000;stroke-width:6;stroke-miterlimit:10;}
	.st3{fill-rule:evenodd;clip-rule:evenodd;fill:#9E8C88;}
	.st4{fill:#FFFFFF;}
	.st5{fill:#E8B49F;}
	.st6{fill:#FFFFFF;stroke:#000000;stroke-width:0.25;stroke-miterlimit:10;}
	.st7{fill:#6D380F;stroke:#000000;stroke-width:0.25;stroke-miterlimit:10;}
</style>
<g id="Calque_1-2">
	<g id="cat">
		<path class="st0" d="M176.3,67.9c25.5,16.3,11.2-2.5-43.4,70.9c-14.7,19.7-106.2,48.3-94.1-63.2c2.5-23.2,3.5-67.8,27.8-67.2
			C88.5,9.1,108.9,24.8,176.3,67.9L176.3,67.9z"/>
		<path class="st1" d="M155.8,78.4c16.5,11.3,39.8,16.9-10,50.8c-35.1,23.9-88.5,59-84-40.6c1.8-40.5-0.1-49.6,15.6-49.2
			C91.6,39.8,112.3,48.4,155.8,78.4L155.8,78.4L155.8,78.4z"/>
		<path class="st0" d="M294.6,69.3c-25.4,16.5-11.2-2.4,44,70.5c14.8,19.6,106.6,47.3,93.5-64C429.4,52.7,428,8,403.7,8.9
			C381.8,9.6,361.6,25.6,294.6,69.3L294.6,69.3z"/>
		<path class="st1" d="M315.1,79.6c-16.4,11.5-39.6,17.3,10.5,50.7c35.3,23.6,89,58.2,83.6-41.4c-2.2-40.4-0.4-49.6-16.1-49
			C379,40.4,358.4,49.2,315.1,79.6L315.1,79.6L315.1,79.6z"/>
		<path class="st2" d="M461.8,246.6c0,97.9-81.6,124.5-222.7,124.5S14.4,344.5,16.3,246.6c2-99,79.8-178.8,218.2-177.3
			C375.6,70.9,461.8,148.7,461.8,246.6L461.8,246.6L461.8,246.6z"/>
		<path class="st3" d="M212.9,118.7c0,23-8.2,41.7-18.2,41.7s-18.2-18.6-18.2-41.7s6.1-44.4,18.8-44.4
			C216.1,74.3,212.9,95.7,212.9,118.7C212.9,118.7,212.9,118.7,212.9,118.7z"/>
		<path class="st3" d="M250.5,128.5c0,28.8-8.2,52.2-18.2,52.2S214,157.3,214,128.5s-4-56,18.8-56
			C258.6,72.5,250.5,99.7,250.5,128.5L250.5,128.5z"/>
		<path class="st3" d="M290.5,119.1c0,23-8.2,41.7-18.2,41.7S254,142.1,254,119.1s6.1-44.4,18.8-44.4
			C293.7,74.7,290.5,96.1,290.5,119.1L290.5,119.1L290.5,119.1z"/>
		<circle cx="118.6" cy="237" r="24.1"/>
		<circle class="st4" cx="125" cy="242.5" r="12.3"/>
		<circle cx="346.8" cy="237" r="24.1"/>
		<circle class="st4" cx="340.4" cy="242.5" r="12.3"/>
		<ellipse class="st5" cx="371.2" cy="288" rx="28.7" ry="15.3"/>
		<path class="st4" d="M198.6,276.6c0,23.1,23.6,44.5,45,44.5c21.4,0,38.7-18.7,38.7-41.8s-17.3-41.8-38.7-41.8
			S198.6,253.5,198.6,276.6L198.6,276.6L198.6,276.6z"/>
		<path class="st6" d="M240.3,279.2c0,7.3-5.6,13.2-12.4,13.2c-6.8,0-12.4-5.9-12.4-13.2s13.5-18.9,20.3-18.9
			S240.3,271.9,240.3,279.2L240.3,279.2L240.3,279.2z"/>
		<path class="st6" d="M240.3,279.2c0,7.3,5.6,13.2,12.4,13.2s12.4-5.9,12.4-13.2s-13.3-18.9-20.1-18.9
			C238.1,260.3,240.3,271.9,240.3,279.2L240.3,279.2z"/>
		<rect x="210.6" y="256.2" class="st4" width="61.6" height="10.4"/>
		<rect x="253.9" y="263.7" class="st4" width="21" height="12.6"/>
		<rect x="211.9" y="263.7" class="st4" width="21" height="12.6"/>
		<path class="st7" d="M264.2,250.6c-0.2,6.2-16.1,16.5-25.2,16.5c-10.6,0-25.4-12.4-25.4-18.2c0-3.7,6.4-11.4,23.4-11.4
			C251.6,237.6,264.5,240.2,264.2,250.6L264.2,250.6L264.2,250.6z"/>
		<ellipse class="st5" cx="82.1" cy="288" rx="28.7" ry="15.3"/>
	</g>
</g>
</svg>
