<?xml version="1.0" encoding="UTF-8"?>
<svg id="Calque_2" data-name="Calque 2" xmlns="http://www.w3.org/2000/svg" viewBox="0 0 491.04 399.88">
  <defs>
    <style>
      .cls-1 {
        fill: #e8b49f;
      }

      .cls-2, .cls-3 {
        fill: #fff;
      }

      .cls-3, .cls-4 {
        stroke-width: 2px;
      }

      .cls-3, .cls-4, .cls-5, .cls-6 {
        stroke: #000;
        stroke-miterlimit: 10;
      }

      .cls-4 {
        fill: #6d380f;
      }

      .cls-5, .cls-6 {
        fill: #cbb7a7;
      }

      .cls-5, .cls-7, .cls-8 {
        fill-rule: evenodd;
      }

      .cls-7 {
        fill: #9e8c88;
      }

      .cls-8 {
        fill: #f0ab93;
      }
    </style>
  </defs>
  <g id="Calque_1-2" data-name="Calque 1">
    <g id="cat">
      <path class="cls-5" d="M176.51,65.87c28.08,17.95,12.34-2.73-47.72,78.04-16.12,21.68-116.77,53.1-103.49-69.49C28.06,48.94,29.15-.17,55.91,.51c24.03,.61,46.44,17.96,120.6,65.36h0Z"/>
      <path class="cls-8" d="M154.01,77.39c18.15,12.48,43.75,18.61-11.04,55.89-38.61,26.28-97.31,64.95-92.37-44.71,2-44.5-.06-54.61,17.21-54.1,15.51,.45,38.25,9.95,86.2,42.91h0Z"/>
      <path class="cls-5" d="M306.62,67.36c-27.92,18.2-12.36-2.62,48.42,77.6,16.32,21.53,117.24,52.04,102.86-70.42C454.91,49.08,453.37-.01,426.62,.91c-24.02,.83-46.27,18.38-120,66.45h0Z"/>
      <path class="cls-8" d="M329.22,78.68c-18.04,12.64-43.58,19,11.54,55.79,38.85,25.93,97.89,64.07,91.96-45.54-2.4-44.48-.43-54.6-17.7-53.94-15.51,.59-38.16,10.29-85.81,43.69h0Z"/>
      <path class="cls-6" d="M490.54,262.38c0,107.7-89.81,137-245,137S-1.63,370.05,.54,262.38C2.74,153.43,88.28,65.7,240.54,67.38c155.18,1.71,250,87.3,250,195h0Z"/>
      <path class="cls-7" d="M217.64,118.2c0,25.31-8.98,45.82-20.05,45.82s-20.05-20.51-20.05-45.82,6.68-48.82,20.72-48.82c22.97,0,19.38,23.51,19.38,48.82h0Z"/>
      <path class="cls-7" d="M258.99,128.97c0,31.7-8.98,57.41-20.05,57.41s-20.05-25.7-20.05-57.41-4.42-61.59,20.65-61.59c28.45,0,19.45,29.89,19.45,61.59h0Z"/>
      <path class="cls-7" d="M302.99,118.63c0,25.31-8.98,45.82-20.05,45.82s-20.05-20.51-20.05-45.82,6.68-48.82,20.72-48.82c22.97,0,19.38,23.51,19.38,48.82h0Z"/>
      <circle cx="113.04" cy="251.88" r="26.5"/>
      <circle class="cls-2" cx="120.04" cy="257.88" r="13.5"/>
      <circle cx="364.04" cy="251.88" r="26.5"/>
      <circle class="cls-2" cx="357.04" cy="257.88" r="13.5"/>
      <ellipse class="cls-1" cx="390.94" cy="307.96" rx="31.6" ry="16.83"/>
      <path class="cls-2" d="M201.04,295.38c0,25.41,25.97,49,49.46,49s42.54-20.59,42.54-46-19.04-46-42.54-46-49.46,17.59-49.46,43h0Z"/>
      <path class="cls-3" d="M246.9,298.29c0,8.01-6.11,14.5-13.64,14.5s-13.64-6.49-13.64-14.5,14.81-20.81,22.35-20.81,4.94,12.8,4.94,20.81h0Z"/>
      <path class="cls-3" d="M246.9,298.29c0,8.01,6.11,14.5,13.64,14.5s13.64-6.49,13.64-14.5-14.63-20.81-22.16-20.81-5.12,12.8-5.12,20.81Z"/>
      <rect class="cls-2" x="214.22" y="272.94" width="67.79" height="11.44"/>
      <rect class="cls-2" x="261.89" y="281.22" width="23.09" height="13.81"/>
      <rect class="cls-2" x="215.71" y="281.22" width="23.09" height="13.81"/>
      <path class="cls-4" d="M273.25,266.79c-.17,6.81-17.75,18.17-27.68,18.17-11.62,0-27.89-13.62-27.89-19.98,0-4.09,7.05-12.49,25.78-12.49,15.85,0,30.08,2.89,29.79,14.31h0Z"/>
      <ellipse class="cls-1" cx="72.89" cy="307.96" rx="31.6" ry="16.83"/>
    </g>
  </g>
</svg>