<?xml version="1.0" encoding="utf-8"?>
<!-- Generator: Adobe Illustrator 27.0.1, SVG Export Plug-In . SVG Version: 6.00 Build 0)  -->
<svg version="1.1" id="Calque_1" xmlns="http://www.w3.org/2000/svg" xmlns:xlink="http://www.w3.org/1999/xlink" x="0px" y="0px"
	 viewBox="0 0 570 555.9" style="enable-background:new 0 0 570 555.9;" xml:space="preserve">
<style type="text/css">
	.st0{fill-rule:evenodd;clip-rule:evenodd;fill:#46484D;stroke:#000000;stroke-width:5;stroke-miterlimit:10;}
	.st1{stroke:#000000;stroke-width:5;stroke-miterlimit:10;}
	.st2{fill-rule:evenodd;clip-rule:evenodd;fill:#F0AB93;}
	.st3{fill:#46484D;stroke:#000000;stroke-width:5;stroke-miterlimit:10;}
	.st4{fill:#FFFFFF;stroke:#000000;stroke-width:2;stroke-miterlimit:10;}
	.st5{stroke:#000000;stroke-width:2;stroke-miterlimit:10;}
	.st6{fill:#FFFFFF;}
	.st7{fill:#F0AB93;stroke:#000000;stroke-width:2;stroke-miterlimit:10;}
	.st8{fill:#FFFFFF;stroke:#000000;stroke-width:5;stroke-miterlimit:10;}
	.st9{fill:#6D380F;stroke:#000000;stroke-width:2;stroke-miterlimit:10;}
	.st10{fill:#E8B49F;}
</style>
<g>
	<path class="st0" d="M51.8,288.2c-5.3,0-9.6-1.8-13.1-5.6c-12.2-13.2-15-50.7-9.3-121.7c3.7-46,11.2-81.6,22.2-105.8
		c9.5-20.8,21.1-31.8,33.6-31.8c2.2,0,4.4,0.3,6.5,1c16.4,5.1,23.2,16.5,45.9,54.2c9.4,15.7,21.2,35.3,37.5,60.8
		c2.6,4,5.3,7.9,8,11.7c9.4,13.1,18.3,25.5,14.9,39.9c-4.1,17.5-25.8,36.4-68.4,59.3c-9.6,5.2-18.5,10.5-27.2,15.6
		C82.2,277.8,64.6,288.2,51.8,288.2L51.8,288.2z"/>
	<path class="st1" d="M85.3,22.3v1.9c2.1,0,4.2,0.3,6.3,1c16,5,22.8,16.3,45.4,53.8c9.4,15.7,21.2,35.3,37.5,60.8
		c2.6,4,5.4,7.9,8.1,11.7c9.3,12.9,18,25.2,14.8,39.1c-4,17.2-25.6,35.9-68,58.6c-9.6,5.2-18.6,10.5-27.2,15.6
		c-20.3,12-37.8,22.4-50.2,22.4c-5.1,0-9.1-1.7-12.4-5.3c-5.8-6.3-9.4-18.3-10.9-36.9c-1.7-19.9-1.1-47.5,1.9-84.2
		C34.1,115,41.6,79.5,52.6,55.5C61.9,35,73.2,24.2,85.3,24.2V22.3 M85.3,22.3c-24.2,0-48.8,40.1-56.8,138.5
		c-8,98.9,1.4,128.3,23.3,128.3c18.3,0,45.3-20.4,78.3-38.2c103.1-55.4,67.1-78.7,45.8-112.1C119.7,50.4,115.6,30.7,92.1,23.4
		C89.9,22.7,87.6,22.3,85.3,22.3L85.3,22.3z"/>
</g>
<path class="st2" d="M154.4,170.9c13.5,22.9,36.5,38.6-30.9,78c-47.5,27.7-86.2-2.4-69.6-75.5s13.9-92.9,30.7-87.6
	C99.8,90.6,118.9,110.4,154.4,170.9L154.4,170.9z"/>
<g>
	<path class="st0" d="M511.7,281.7c-12.9,0-30.3-12-50.6-25.9c-8.3-5.7-16.9-11.6-26.1-17.3c-41-25.7-61.5-45.9-64.4-63.7
		c-2.4-14.6,7.3-26.3,17.5-38.8c2.9-3.6,6-7.3,8.8-11.1c17.9-24.4,31-43.2,41.4-58.2c25.1-36.1,32.7-47.1,49.4-51
		c1.7-0.4,3.5-0.6,5.2-0.6c12.8,0,24,11.3,32.3,32.6c9.7,24.9,15,61.3,15.7,108.4c1,70.4-4.2,107.5-16.8,120.4
		C520.7,280,516.6,281.7,511.7,281.7L511.7,281.7L511.7,281.7z"/>
	<path class="st1" d="M492.9,16c12.4,0,23.2,11.1,31.4,32c9.6,24.4,15,61.8,15.6,108.1c1,69.2-4.3,107.2-16.6,119.7
		c-3.3,3.3-7.1,4.9-11.8,4.9c-12.6,0-29.9-11.9-50-25.7c-8.3-5.7-16.9-11.6-26.1-17.4c-40.8-25.5-61.1-45.6-63.9-63
		c-2.3-14.1,7.2-25.8,17.3-38.1c2.9-3.6,6-7.3,8.8-11.1c17.9-24.4,31-43.2,41.4-58.2c25-35.9,32.5-46.8,48.8-50.7
		C489.6,16.2,491.3,16,492.9,16 M492.9,14.2c-1.8,0-3.6,0.2-5.4,0.7c-23.9,5.7-29.3,25.1-91.3,109.6c-23.5,32-60.9,52.8,38.3,114.9
		c32.7,20.5,58.8,43.3,77.2,43.3c20.9,0,31.6-29.7,30.2-126.5C540.4,55.5,517.6,14.2,492.9,14.2L492.9,14.2L492.9,14.2z"/>
</g>
<path class="st2" d="M415.6,157.9c-15,22-39,36.1,25.6,79.8c45.5,30.8,86.1,3.3,74.5-70.7C504,93,508,73.4,490.8,77.6
	C475.4,81.4,455.1,99.9,415.6,157.9L415.6,157.9z"/>
<g>
	<ellipse class="st3" cx="285" cy="340.2" rx="264.6" ry="191"/>
	<path class="st1" d="M285,150.1c35.7,0,70.2,5,102.8,15c31.4,9.6,59.6,23.4,83.8,40.9c24.2,17.5,43.1,37.8,56.4,60.4
		c13.7,23.4,20.6,48.2,20.6,73.8s-6.9,50.4-20.6,73.8c-13.2,22.6-32.2,43-56.4,60.4c-24.2,17.5-52.4,31.2-83.8,40.9
		c-32.6,9.9-67.1,15-102.8,15s-70.2-5-102.8-15c-31.4-9.6-59.6-23.4-83.8-40.9c-24.2-17.5-43.1-37.8-56.4-60.4
		c-13.7-23.4-20.6-48.2-20.6-73.8s6.9-50.4,20.6-73.8c13.2-22.6,32.2-43,56.4-60.4c24.2-17.5,52.4-31.2,83.8-40.9
		C214.8,155.1,249.3,150.1,285,150.1 M285,148.2c-146.6,0-265.5,85.9-265.5,191.9S138.4,532.1,285,532.1s265.5-85.9,265.5-191.9
		S431.6,148.2,285,148.2L285,148.2L285,148.2z"/>
</g>
<g>
	<path class="st4" d="M284.6,516.9c-41.6,0-84.5-8.6-123.9-24.8c-37.2-15.3-68.4-36.5-87.8-59.6c-17.1-20.4-24.3-41.3-20.9-60.7
		c6-34.1,19.7-59.3,40.6-75c17.2-12.9,39.5-19.4,66.3-19.4c57.8,0,117.6,30.7,118.2,31l0.4,0.2l0.4-0.2
		c0.6-0.3,63.4-26.8,122.9-26.8c35.2,0,62.3,9.2,80.4,27.3c18.3,18.3,27.5,45.9,27.4,82.1C508.5,460.5,408,516.9,284.6,516.9
		L284.6,516.9z"/>
	<path class="st5" d="M158.9,276.5v1.9c57.5,0,117.2,30.6,117.8,30.9l0.8,0.4l0.8-0.3c0.6-0.3,63.3-26.7,122.5-26.7
		c35,0,61.8,9.1,79.7,27.1c18.1,18.1,27.2,45.5,27.2,81.5C507.6,460,407.5,516,284.6,516c-41.5,0-84.3-8.6-123.6-24.8
		c-37.1-15.3-68.1-36.3-87.4-59.3c-16.9-20.1-24-40.9-20.7-59.9c6-33.9,19.5-58.9,40.2-74.4c17.1-12.8,39.2-19.2,65.8-19.2
		L158.9,276.5 M158.9,276.5c-47.7,0-94.7,20.6-107.8,95.2c-12.2,69.1,109.2,146.2,233.5,146.2s224.8-56.7,225-126.8
		c0.1-87.6-53.2-110.4-108.8-110.4c-60.3,0-123.2,26.9-123.2,26.9S217.6,276.5,158.9,276.5L158.9,276.5L158.9,276.5z"/>
</g>
<ellipse class="st6" cx="188.6" cy="387.8" rx="7.9" ry="7.3"/>
<g>
	<path d="M164.3,381.6c-12.1,0-21.9-9.1-21.9-20.3c0-11.2,9.8-20.3,21.9-20.3c12.1,0,21.9,9.1,21.9,20.3
		C186.2,372.5,176.3,381.6,164.3,381.6z"/>
	<path d="M164.3,341.5c11.8,0,21.4,8.9,21.4,19.9c0,10.9-9.6,19.9-21.4,19.9c-11.8,0-21.4-8.9-21.4-19.9
		C142.9,350.4,152.5,341.5,164.3,341.5 M164.3,340.6c-12.3,0-22.4,9.3-22.4,20.8s10,20.8,22.4,20.8c12.3,0,22.4-9.3,22.4-20.8
		S176.6,340.6,164.3,340.6L164.3,340.6z"/>
</g>
<ellipse class="st6" cx="168.7" cy="359.8" rx="13.8" ry="12.5"/>
<g>
	<ellipse cx="416" cy="361.2" rx="21.9" ry="20.3"/>
	<path d="M416,341.3c11.8,0,21.4,8.9,21.4,19.9S427.8,381,416,381c-11.8,0-21.4-8.9-21.4-19.9S404.2,341.3,416,341.3 M416,340.4
		c-12.3,0-22.4,9.3-22.4,20.8s10,20.8,22.4,20.8c12.3,0,22.4-9.3,22.4-20.8S428.4,340.4,416,340.4L416,340.4z"/>
</g>
<ellipse class="st6" cx="411.6" cy="359.7" rx="13.8" ry="12.5"/>
<ellipse class="st7" cx="282.7" cy="462.2" rx="25.6" ry="34.5"/>
<path class="st8" d="M281.8,438.8c0,10.9-8.3,19.7-18.5,19.7s-18.5-8.8-18.5-19.7c0-10.9,20.1-28.2,30.3-28.2
	C285.3,410.6,281.8,428,281.8,438.8L281.8,438.8z"/>
<path class="st8" d="M281.8,438.8c0,10.9,8.3,19.7,18.5,19.7c10.2,0,18.5-8.8,18.5-19.7c0-10.9-19.8-28.2-30.1-28.2
	S281.8,428,281.8,438.8L281.8,438.8z"/>
<rect x="237.5" y="404.4" class="st6" width="91.9" height="15.5"/>
<rect x="302.1" y="415.7" class="st6" width="31.3" height="18.7"/>
<rect x="239.5" y="415.7" class="st6" width="31.3" height="18.7"/>
<path class="st9" d="M318.9,405.6c0.7,9.2-24.1,24.6-37.5,24.6c-15.8,0-37.8-18.5-37.8-27.1c0-5.5,9.6-16.9,35-16.9
	C300,386.2,318,393.6,318.9,405.6L318.9,405.6z"/>
<ellipse class="st10" cx="146.2" cy="420.7" rx="42.9" ry="22.8"/>
<ellipse class="st10" cx="437.8" cy="420.7" rx="42.9" ry="22.8"/>
</svg>
