<?xml version="1.0" encoding="UTF-8"?>
<svg id="Calque_1" data-name="Calque 1" xmlns="http://www.w3.org/2000/svg" xmlns:xlink="http://www.w3.org/1999/xlink" viewBox="0 0 570 555.92">
  <defs>
    <style>
      .cls-1 {
        stroke-width: 5px;
      }

      .cls-1, .cls-2 {
        fill: #fff;
      }

      .cls-1, .cls-3, .cls-4 {
        stroke: #000;
        stroke-miterlimit: 10;
      }

      .cls-5 {
        fill: #e8b49f;
      }

      .cls-6, .cls-7 {
        fill: #46484d;
      }

      .cls-3, .cls-4 {
        stroke-width: 2px;
      }

      .cls-3, .cls-8, .cls-9 {
        fill: #f0ab93;
      }

      .cls-4 {
        fill: #6d380f;
      }

      .cls-8 {
        filter: url(#outer-glow-2);
      }

      .cls-8, .cls-9, .cls-7 {
        fill-rule: evenodd;
      }

      .cls-9 {
        filter: url(#outer-glow-1);
      }
    </style>
    <filter id="outer-glow-1" filterUnits="userSpaceOnUse">
      <feOffset dx="0" dy="0"/>
      <feGaussianBlur result="blur" stdDeviation="2"/>
      <feFlood flood-color="#fff6ee" flood-opacity=".35"/>
      <feComposite in2="blur" operator="in"/>
      <feComposite in="SourceGraphic"/>
    </filter>
    <filter id="outer-glow-2" filterUnits="userSpaceOnUse">
      <feOffset dx="0" dy="0"/>
      <feGaussianBlur result="blur-2" stdDeviation="2"/>
      <feFlood flood-color="#fff6ee" flood-opacity=".35"/>
      <feComposite in2="blur-2" operator="in"/>
      <feComposite in="SourceGraphic"/>
    </filter>
  </defs>
  <g>
    <path class="cls-7" d="M34.73,294.14c-5.74,0-10.34-1.96-14.05-5.98-13.05-14.15-16.12-54.45-9.96-130.68,3.99-49.4,12.02-87.61,23.87-113.57C44.77,21.58,57.25,9.78,70.68,9.78c2.33,0,4.69,.37,7.03,1.09,17.57,5.45,24.91,17.67,49.25,58.18,10.13,16.86,22.74,37.85,40.21,65.29,2.75,4.31,5.73,8.49,8.62,12.52,10.08,14.09,19.59,27.4,16.01,42.81-4.37,18.81-27.72,39.02-73.46,63.6-10.3,5.54-19.9,11.22-29.19,16.72-21.87,12.95-40.76,24.14-54.41,24.14Z"/>
    <path d="M70.68,8.78v2c2.22,0,4.49,.35,6.73,1.05,17.2,5.34,24.5,17.48,48.69,57.74,10.14,16.87,22.75,37.86,40.23,65.31,2.76,4.33,5.75,8.52,8.65,12.57,9.94,13.9,19.33,27.03,15.85,42.01-4.3,18.51-27.49,38.51-72.96,62.95-10.32,5.55-19.93,11.24-29.22,16.74-21.74,12.88-40.52,24-53.9,24-5.45,0-9.81-1.85-13.32-5.66-6.2-6.72-10.04-19.67-11.73-39.58-1.82-21.4-1.15-50.95,2.03-90.35,3.98-49.29,11.98-87.38,23.78-113.23C45.51,22.39,57.67,10.79,70.68,10.78v-2m0,0c-25.93,0-52.42,43.03-60.95,148.62-8.58,106.14,1.45,137.74,25.01,137.74,19.62,0,48.62-21.92,84.07-40.98,110.69-59.49,72.07-84.44,49.21-120.36C107.61,38.94,103.22,17.74,78,9.92c-2.43-.75-4.87-1.14-7.32-1.14h0Z"/>
  </g>
  <path class="cls-9" d="M144.87,168.26c14.45,24.59,39.21,41.43-33.12,83.67-50.98,29.78-92.48-2.6-74.75-81.01,17.73-78.41,14.89-99.73,33-94,16.26,5.15,36.71,26.4,74.87,91.34Z"/>
  <g>
    <path class="cls-7" d="M528.28,287.22c-13.81,0-32.57-12.86-54.28-27.75-8.9-6.1-18.1-12.41-28.01-18.62-44.01-27.57-65.96-49.28-69.08-68.34-2.55-15.62,7.83-28.27,18.82-41.66,3.15-3.84,6.4-7.8,9.43-11.92,19.25-26.22,33.23-46.33,44.46-62.48,26.97-38.8,35.11-50.51,53-54.78,1.87-.45,3.75-.67,5.59-.67,13.71,0,25.71,12.12,34.68,35.04,10.45,26.7,16.12,65.85,16.84,116.36,1.08,75.59-4.5,115.44-18.07,129.21-3.72,3.77-8.09,5.61-13.36,5.61h0Z"/>
    <path d="M508.2,2c13.27,0,24.94,11.9,33.75,34.4,10.26,26.21,16.06,66.33,16.77,116.01,1.06,74.28-4.59,115.11-17.79,128.49-3.53,3.58-7.66,5.31-12.65,5.31-13.5,0-32.14-12.78-53.71-27.57-8.91-6.11-18.12-12.42-28.05-18.64-43.75-27.4-65.56-48.9-68.62-67.65-2.48-15.17,7.76-27.65,18.6-40.86,3.16-3.85,6.42-7.82,9.46-11.96,19.26-26.23,33.24-46.34,44.47-62.5,26.8-38.56,34.89-50.2,52.41-54.38,1.79-.43,3.6-.65,5.36-.65m0-2c-1.93,0-3.87,.24-5.82,.7-25.69,6.13-31.47,26.99-98.03,117.64-25.2,34.32-65.39,56.65,41.11,123.36,35.08,21.97,63.15,46.52,82.82,46.52,22.42,0,33.92-31.88,32.44-135.83C559.18,44.33,534.68,0,508.2,0h0Z"/>
  </g>
  <path class="cls-8" d="M425.15,154.25c-16.05,23.57-41.87,38.73,27.49,85.69,48.89,33.09,92.45,3.54,79.96-75.87-12.49-79.42-8.24-100.5-26.69-95.98-16.57,4.06-38.38,23.91-80.76,86.17Z"/>
  <g>
    <ellipse class="cls-6" cx="285" cy="349.92" rx="284" ry="205"/>
    <path d="M285,145.92c38.28,0,75.4,5.42,110.35,16.1,33.73,10.31,64.01,25.07,90,43.86,25.95,18.75,46.31,40.58,60.52,64.87,14.68,25.09,22.12,51.72,22.12,79.17s-7.44,54.09-22.12,79.17c-14.21,24.29-34.58,46.11-60.52,64.87-26,18.79-56.28,33.54-90,43.86-34.95,10.68-72.07,16.1-110.35,16.1s-75.4-5.42-110.35-16.1c-33.73-10.31-64.01-25.07-90-43.86-25.95-18.75-46.31-40.58-60.52-64.87-14.68-25.09-22.12-51.72-22.12-79.17s7.44-54.09,22.12-79.17c14.21-24.29,34.58-46.11,60.52-64.87,26-18.79,56.28-33.54,90-43.86,34.95-10.68,72.07-16.1,110.35-16.1m0-2C127.6,143.92,0,236.15,0,349.92s127.6,206,285,206,285-92.23,285-206-127.6-206-285-206h0Z"/>
  </g>
  <g>
    <path class="cls-2" d="M284.53,539.65c-44.7,0-90.7-9.21-133.02-26.65-39.93-16.45-73.39-39.17-94.2-63.98-18.33-21.85-26.08-44.38-22.42-65.15,6.46-36.61,21.12-63.68,43.57-80.47,18.5-13.83,42.45-20.85,71.19-20.85,62.04,0,126.24,32.93,126.88,33.26l.42,.22,.43-.19c.67-.29,68.1-28.75,131.88-28.75,37.83,0,66.86,9.87,86.29,29.33,19.6,19.64,29.51,49.3,29.44,88.16-.13,74.47-108,135.06-240.47,135.06Z"/>
    <path d="M149.66,281.55v2c61.77,0,125.78,32.81,126.42,33.15l.84,.43,.87-.37c.67-.29,67.92-28.66,131.49-28.66,37.55,0,66.34,9.77,85.58,29.04,19.41,19.44,29.22,48.87,29.15,87.46-.13,73.92-107.55,134.06-239.47,134.06-44.57,0-90.44-9.19-132.64-26.57-39.79-16.39-73.11-39.01-93.82-63.7-18.14-21.62-25.81-43.86-22.2-64.34,6.42-36.35,20.95-63.21,43.19-79.84,18.32-13.7,42.07-20.65,70.59-20.65v-2m0,0c-51.25,0-101.61,22.08-115.75,102.15-13.09,74.12,117.26,156.96,250.62,156.96s241.34-60.88,241.47-136.06c.16-94.02-57.09-118.5-116.73-118.5-64.73,0-132.27,28.83-132.27,28.83,0,0-64.34-33.37-127.34-33.37h0Z"/>
  </g>
  <ellipse class="cls-2" cx="181.53" cy="401.09" rx="8.47" ry="7.87"/>
  <g>
    <path d="M155.42,394.46c-12.95,0-23.48-9.78-23.48-21.81s10.54-21.81,23.48-21.81,23.49,9.78,23.49,21.81-10.54,21.81-23.49,21.81Z"/>
    <path d="M155.42,351.35c12.67,0,22.99,9.56,22.99,21.31s-10.31,21.31-22.99,21.31-22.99-9.56-22.99-21.31,10.31-21.31,22.99-21.31m0-1c-13.25,0-23.99,9.99-23.99,22.31s10.74,22.31,23.99,22.31,23.99-9.99,23.99-22.31-10.74-22.31-23.99-22.31h0Z"/>
  </g>
  <ellipse class="cls-2" cx="160.12" cy="371.05" rx="14.83" ry="13.42"/>
  <g>
    <ellipse cx="425.62" cy="372.5" rx="23.49" ry="21.81"/>
    <path d="M425.62,351.19c12.67,0,22.99,9.56,22.99,21.31s-10.31,21.31-22.99,21.31-22.99-9.56-22.99-21.31,10.31-21.31,22.99-21.31m0-1c-13.25,0-23.99,9.99-23.99,22.31s10.74,22.31,23.99,22.31,23.99-9.99,23.99-22.31-10.74-22.31-23.99-22.31h0Z"/>
  </g>
  <ellipse class="cls-2" cx="420.91" cy="370.89" rx="14.83" ry="13.42"/>
  <ellipse class="cls-3" cx="282.5" cy="480.92" rx="27.5" ry="37"/>
  <path class="cls-1" d="M281.57,455.82c0,11.66-8.89,21.1-19.85,21.1s-19.85-9.45-19.85-21.1,21.56-30.29,32.53-30.29,7.18,18.64,7.18,30.29Z"/>
  <path class="cls-1" d="M281.57,455.82c0,11.66,8.89,21.1,19.85,21.1s19.85-9.45,19.85-21.1-21.29-30.29-32.26-30.29-7.45,18.64-7.45,30.29Z"/>
  <rect class="cls-2" x="234" y="418.92" width="98.66" height="16.65"/>
  <rect class="cls-2" x="303.39" y="430.98" width="33.61" height="20.1"/>
  <rect class="cls-2" x="236.17" y="430.98" width="33.61" height="20.1"/>
  <path class="cls-4" d="M321.37,420.17c.71,9.89-25.83,26.44-40.28,26.44-16.91,0-40.59-19.83-40.59-29.09,0-5.95,10.26-18.18,37.52-18.18,23.06,0,42.44,7.93,43.36,20.82Z"/>
  <ellipse class="cls-5" cx="136" cy="436.42" rx="46" ry="24.5"/>
  <ellipse class="cls-5" cx="449" cy="436.42" rx="46" ry="24.5"/>
</svg>