<?xml version="1.0" encoding="UTF-8"?>
<svg id="Calque_2" data-name="Calque 2" xmlns="http://www.w3.org/2000/svg" viewBox="0 0 320.66 326.49">
  <defs>
    <style>
      .cls-1, .cls-2 {
        fill: #fff;
      }

      .cls-3, .cls-4 {
        fill: #ff9cb8;
      }

      .cls-2, .cls-5, .cls-6 {
        stroke-width: 2px;
      }

      .cls-2, .cls-5, .cls-6, .cls-4, .cls-7 {
        stroke-miterlimit: 10;
      }

      .cls-2, .cls-5, .cls-6, .cls-7 {
        stroke: #000;
      }

      .cls-5, .cls-7 {
        fill: #fcae24;
      }

      .cls-6 {
        fill: #593420;
      }

      .cls-4 {
        stroke: #ffe0d4;
      }

      .cls-4, .cls-7 {
        stroke-width: 3px;
      }
    </style>
  </defs>
  <g id="Calque_1-2" data-name="Calque 1">
    <path class="cls-6" d="M8,231.77c-16.1,66.68-18.67,93.72,155.32,93.72s163.17-16.5,150.37-93.72c-10.27-61.96-68.43-113.72-152.84-113.72S22.74,170.72,8,231.77Z"/>
    <path class="cls-2" d="M308.87,194.09s16.42,46.8,3.36,88.78c-.3,.96-5.53,17.46-10.08,16.96-3.82-.42-3.41-12.4-11.46-28.42-4.47-8.9-12.02-19.95-15.13-18.79-2.89,1.08-1.21,12.52,.46,23.83,1.52,10.33,3.53,18.7,5.04,24.29-12.09-22.69-18.43-27.55-22-26.58-5.06,1.37-5.2,14.65-8.71,14.67-4.58,.03-13-22.5-18.04-25.75-.15-.1-.32-.19-.5-.14-1.94,.53,2.77,15.45,.66,33.22-.59,5-1.43,12.09-3.67,12.38-5.64,.73-13.28-42.77-20.63-42.17-5.2,.43-5.34,22.55-11.92,23.38-7.1,.89-13.13-24.16-20.63-23.38-7.31,.76-7.5,25.21-15.36,26.31-8.31,1.17-14.84-25.23-24.51-24.48-8.99,.7-13.41,24.29-16.26,23.63-3.02-.71,1.94-27.35-1.16-28.21-4.18-1.16-18.9,45.66-23.83,44.46-4.71-1.14,3.7-45.03-1.38-46.29-4.76-1.19-18.23,36-20.17,35.29-1.56-.57,7.71-24.58,3.21-27.04,0,0-2.3-1.26-22.46,18.33h0c-.11,5.97,4.11-15.49-1.38-17.88-3.52-1.53-10.89,10.71-12.83,9.63-2.75-1.54,10.55-26.91,6.88-29.33-1.75-1.15-6.31,3.54-21.54,16.04-14.52,11.92-15.93,12.23-16.96,11.92-8.39-2.54-4.35-49.98,4.51-84.65C26.42,139.26,77.65,17.95,160.64,17.9c86.4-.06,132.51,131.36,148.23,176.19Z"/>
    <ellipse class="cls-3" cx="54.69" cy="188.81" rx="34.18" ry="18.24"/>
    <ellipse class="cls-3" cx="264.23" cy="188.81" rx="34.18" ry="18.24"/>
    <circle cx="94.69" cy="132.76" r="31.53"/>
    <circle class="cls-1" cx="94.69" cy="146.06" r="20.43"/>
    <circle cx="230.05" cy="131.66" r="31.53"/>
    <circle class="cls-1" cx="230.05" cy="144.96" r="20.43"/>
    <path class="cls-5" d="M202.19,193.25c0,18.92-35.78,64.43-42.09,65.55-4.55,.81-41.63-51.08-41.63-70s18.87-13.3,42.18-13.3,41.53-1.18,41.53,17.74Z"/>
    <path class="cls-4" d="M193.1,194.72c0,13.2-14.7,45.75-32.94,45.75s-32.59-35.65-32.59-48.85,14.77-9.28,33.02-9.28,32.51-.82,32.51,12.38Z"/>
    <path class="cls-7" d="M204.52,184.31c0,5.92-25.25,34.98-36.77,45.08-3.54,3.11-8.78,3.26-12.5,.37-12.72-9.88-36.77-39.41-36.77-45.45,0-7.59,19.26-13.74,43.02-13.74s43.02,6.15,43.02,13.74Z"/>
    <path class="cls-2" d="M127.57,20.47c-7.85-13.59-12.42-18.79-12.42-18.79,0,0,24.45-4.4,32.3,9.2,7.85,13.59-.17,25.67-7.6,29.95s-4.43-6.77-12.28-20.36Z"/>
  </g>
</svg>