<?xml version="1.0" encoding="utf-8"?>
<!-- Generator: Adobe Illustrator 27.0.1, SVG Export Plug-In . SVG Version: 6.00 Build 0)  -->
<svg version="1.1" id="Calque_2_00000170260982453901910460000005651994625314461835_"
	 xmlns="http://www.w3.org/2000/svg" xmlns:xlink="http://www.w3.org/1999/xlink" x="0px" y="0px" viewBox="0 0 320.7 326.5"
	 style="enable-background:new 0 0 320.7 326.5;" xml:space="preserve">
<style type="text/css">
	.st0{fill:#593420;stroke:#000000;stroke-width:5;stroke-miterlimit:10;}
	.st1{fill:#FFFFFF;stroke:#000000;stroke-width:5;stroke-miterlimit:10;}
	.st2{fill:#FF9CB8;}
	.st3{fill:#FFFFFF;}
	.st4{fill:#FCAE24;stroke:#000000;stroke-width:2;stroke-miterlimit:10;}
	.st5{fill:#FF9CB8;stroke:#FFE0D4;stroke-width:3;stroke-miterlimit:10;}
	.st6{fill:#FCAE24;stroke:#000000;stroke-width:3;stroke-miterlimit:10;}
</style>
<g id="Calque_1-2">
	<path class="st0" d="M16.1,228.1C0.8,291.1-1.6,316.7,163,316.7s154.3-15.6,142.2-88.6c-9.7-58.6-64.7-107.6-144.6-107.6
		S30,170.3,16.1,228.1z"/>
	<path class="st1" d="M300.6,192.4c0,0,15.5,44.3,3.2,84c-0.3,0.9-5.2,16.5-9.5,16c-3.6-0.4-3.2-11.7-10.8-26.9
		c-4.2-8.4-11.4-18.9-14.3-17.8c-2.7,1-1.1,11.8,0.4,22.5c1.4,9.8,8.4,30.6,4.8,23c-3.6-7.7-17.4-26.1-20.8-25.1
		c-4.8,1.3-4.9,13.9-8.2,13.9c-4.3,0-12.3-21.3-17.1-24.4c-0.1-0.1-0.3-0.2-0.5-0.1c-1.8,0.5,2.6,14.6,0.6,31.4
		c-0.6,4.7-1.4,11.4-3.5,11.7c-5.3,0.7-12.6-40.5-19.5-39.9c-4.9,0.4-5.1,21.3-11.3,22.1c-6.7,0.8-12.4-22.9-19.5-22.1
		c-6.9,0.7-7.1,23.8-14.5,24.9c-7.9,1.1-14-23.9-23.2-23.2c-8.5,0.7-12.7,23-15.4,22.3c-2.9-0.7,1.8-25.9-1.1-26.7
		c-4-1.1-17.9,43.2-22.5,42c-4.5-1.1,3.5-42.6-1.3-43.8c-4.5-1.1-17.2,34-19.1,33.4c-1.5-0.5,7.3-23.2,3-25.6c0,0-2.2-1.2-21.2,17.3
		l0,0c-0.1,5.6,3.9-14.7-1.3-16.9c-3.3-1.4-10.3,10.1-12.1,9.1c-2.6-1.5,10-25.5,6.5-27.7c-1.7-1.1-6,3.3-20.4,15.2
		c-13.7,11.3-15.1,11.6-16,11.3c-7.9-2.4-4.1-47.3,4.3-80.1C33.5,140.6,81.9,25.8,160.4,25.8C242.1,25.7,285.8,150,300.6,192.4z"/>
	<ellipse class="st2" cx="60.2" cy="187.4" rx="32.3" ry="17.3"/>
	<ellipse class="st2" cx="258.4" cy="187.4" rx="32.3" ry="17.3"/>
	<circle cx="98.1" cy="134.4" r="29.8"/>
	<circle class="st3" cx="98.1" cy="147" r="19.3"/>
	<ellipse transform="matrix(0.1602 -0.9871 0.9871 0.1602 58.2152 335.168)" cx="226.1" cy="133.4" rx="29.8" ry="29.8"/>
	<circle class="st3" cx="226.1" cy="146" r="19.3"/>
	<path class="st4" d="M199.7,191.6c0,17.9-33.8,60.9-39.8,62c-4.3,0.8-39.4-48.3-39.4-66.2s17.8-12.6,39.9-12.6
		S199.7,173.7,199.7,191.6L199.7,191.6z"/>
	<path class="st5" d="M191.1,193c0,12.5-13.9,43.3-31.2,43.3s-30.8-33.7-30.8-46.2s14-8.8,31.2-8.8S191.1,180.5,191.1,193z"/>
	<path class="st6" d="M201.9,183.2c0,5.6-23.9,33.1-34.8,42.6c-3.3,2.9-8.3,3.1-11.8,0.3c-12-9.3-34.8-37.3-34.8-43
		c0-7.2,18.2-13,40.7-13S201.9,176,201.9,183.2z"/>
	<path class="st1" d="M129.2,28.2c-7.4-12.9-11.7-17.8-11.7-17.8s23.1-4.2,30.5,8.7c7.4,12.9-0.2,24.3-7.2,28.3
		C133.7,51.5,136.6,41.1,129.2,28.2z"/>
</g>
</svg>
