<?xml version="1.0" encoding="UTF-8"?>
<svg id="Calque_2" data-name="Calque 2" xmlns="http://www.w3.org/2000/svg" viewBox="0 0 511.77 527.67">
  <defs>
    <style>
      .cls-1 {
        fill: #fff;
      }

      .cls-2 {
        fill: #f08156;
      }

      .cls-3 {
        fill: #fecd4a;
        stroke: #000;
        stroke-miterlimit: 10;
        stroke-width: 7px;
      }
    </style>
  </defs>
  <g id="Calque_1-2" data-name="Calque 1">
    <path class="cls-3" d="M219.29,63.43c3.61,8.56,5.74,31.43,5.74,45.56,0,35.31-10.86,48.85-27.27,48.85s-32.16-13.54-32.16-48.85c0-14.13,2.13-37,5.73-45.56-10.23-7.97-16.88-9.41-16.88-24,0-24.21,18.29-33.33,40.86-33.33s40.86,9.12,40.86,33.33c0,14.6-6.65,16.03-16.88,24Z"/>
    <path class="cls-3" d="M346.56,60.84c3.61,8.56,5.74,31.43,5.74,45.56,0,35.31-10.86,48.85-27.27,48.85s-32.16-13.54-32.16-48.85c0-14.13,2.13-37,5.73-45.56-10.23-7.97-16.88-9.41-16.88-24,0-24.21,18.29-33.33,40.86-33.33s40.86,9.12,40.86,33.33c0,14.6-6.65,16.03-16.88,24Z"/>
    <path class="cls-3" d="M364.66,122.71c-13.5,39.23-12.16,100.8,21.51,116.99,30.33,14.58,76.81-12.52,96.55-45.32,4.41-7.33,7.96-15.72,13.55-49.69,11.63-70.61,17.44-105.92,5.16-115.39-24.34-18.75-112.33,22.4-136.77,93.41Z"/>
    <path class="cls-1" d="M387.55,147.39c-18.56,39.24-17.85,78.5,1.58,87.69,19.43,9.19,50.23-15.17,68.79-54.41s41.19-109.19,21.76-118.38c-19.43-9.19-73.57,45.86-92.13,85.1Z"/>
    <path class="cls-3" d="M148.09,119.73c13.29,38.63,12.67,100.28-21.51,116.99-30.05,14.69-75.89-10.35-95.74-41.9-5.69-9.04-8.77-17.86-13.58-45.01C3.93,74.55-2.73,36.92,11.33,26.32,36.45,7.37,123.79,49.11,148.09,119.73Z"/>
    <path class="cls-1" d="M125.2,144.41c18.56,39.24,17.85,78.5-1.58,87.69-19.43,9.19-50.23-15.17-68.79-54.41-18.56-39.24-41.19-109.19-21.76-118.38,19.43-9.19,73.57,45.86,92.13,85.1Z"/>
    <path class="cls-3" d="M475.8,419.13c0,88.09-171.53,104.98-227.43,105.04-55.91,.05-206.26-22.03-206.26-110.6,0-30.79,7.84-50.66,21.77-63.33-6.71-20.29-10.34-41.98-10.34-64.52,0-113.45,91.98-181.7,205.42-181.7s205.4,68.25,205.4,181.7c0,24.95-4.45,48.85-12.59,70.97,15.2,13.36,24.03,33.18,24.03,62.44Z"/>
    <circle cx="160.46" cy="300.93" r="21.79"/>
    <circle cx="357.44" cy="300.93" r="21.79"/>
    <ellipse cx="206.96" cy="441.97" rx="14.19" ry="28.38"/>
    <ellipse cx="321.11" cy="441.97" rx="14.19" ry="28.38"/>
    <path class="cls-2" d="M472.56,422.73c.79,20-11.77,36.73-28.06,37.37-16.29,.64-13.11-22.67-13.9-42.67s4.76-27.39,21.05-28.04c16.29-.64,20.12,13.33,20.91,33.33Z"/>
    <path class="cls-2" d="M297.49,146.17c-2.28,19.88-7.17,68.54-36.84,68.54s-34.55-48.66-36.85-68.54c-4.43-38.34,2.99-39.91,35.48-38.94,35.52,1.06,42.65,.33,38.21,38.94Z"/>
    <path class="cls-2" d="M328.04,204.66c-.35,7.66-1.97,10.03-18.19,10.67-16.22,.64-26.78,.14-23.51-13.96,5.44-23.47,13.59-19.03,21.27-20.18,15.96-2.38,21.08,9.24,20.43,23.47Z"/>
    <path class="cls-2" d="M236.11,206.72c3.74,6.37-1.25,9.66-12.43,10.1-11.18,.44-18.47-.16-16.36-13.73,3.5-22.59,5.31-25.7,14.44-19.24,6.05,4.28,9.75,15.05,14.35,22.87Z"/>
    <path class="cls-2" d="M226.03,237.58c-4.64-5.9-5.28-8.35,2.81-15.5,8.09-7.15,13.94-11.12,21.1,.82,11.92,19.87,4.86,19.89,1.56,23.9-6.86,8.35-16.85,1.73-25.47-9.23Z"/>
    <path class="cls-2" d="M267.71,225.82c.28-4.82,5.32-7.47,8.88-8.75,1.98-.71,4.08-1.02,6.18-.97,9.24,.22,14.89,2.05,12.57,14.56-4.24,22.78-9.53,18.12-14.67,18.94-10.67,1.71-13.77-9.86-12.97-23.78Z"/>
    <path class="cls-2" d="M269.34,263.68c3.66,6.25,1.59,6.88-8.71,7.6-10.3,.72-10.44,4.02-8.94-9.53,2.48-22.56,3.13-17.98,11.77-11.78,5.72,4.1,1.38,6.04,5.88,13.7Z"/>
    <path class="cls-2" d="M50.11,436.59c5.83,19.15,21.49,33.76,38.79,26.07,14.89-6.62,4.92-25.72-.91-44.87s-13.51-24.3-29.1-19.56c-15.59,4.75-14.61,19.21-8.78,38.35Z"/>
    <path class="cls-2" d="M85.49,399.93c12.79,15.39,15.99,19.18,24.8,8.84,7.59-8.9,14.14-24.36,1.35-39.75-12.79-15.39-20.57-10.68-29.5-3.26s-9.44,18.78,3.35,34.17Z"/>
    <path class="cls-2" d="M100.76,447.9c3.94,18.7,5.45,21.77,18.08,16.85,10.88-4.24,23.48-12.96,19.54-31.66-3.94-18.7-19.25-11.14-30.61-8.75-11.36,2.39-10.95,4.87-7.01,23.56Z"/>
    <path class="cls-2" d="M394.9,394.47c3.94,18.7-8.4,31.8,4.24,26.88,10.88-4.24,29.72,1.69,25.78-17.01s11.37-35.75,.01-33.36c-11.36,2.39-33.97,4.79-30.03,23.48Z"/>
    <path class="cls-2" d="M386.26,457.77c3.94,18.7,10.46,14.02,23.1,9.1,10.88-4.24,18.46-5.21,14.52-23.91s-8.18-20.18-19.54-17.78c-11.36,2.39-22.02,13.9-18.08,32.6Z"/>
  </g>
</svg>