<?xml version="1.0" encoding="UTF-8"?>
<svg id="Calque_2" data-name="Calque 2" xmlns="http://www.w3.org/2000/svg" viewBox="0 0 343.91 342.21">
  <defs>
    <style>
      .cls-1 {
        fill: none;
        stroke: #ff74ab;
        stroke-miterlimit: 10;
        stroke-width: 3px;
      }

      .cls-2 {
        fill: #fffcfa;
      }

      .cls-3 {
        fill: #fff;
      }

      .cls-4 {
        fill: #cb775a;
      }

      .cls-5 {
        fill: #e1b89a;
      }
    </style>
  </defs>
  <g id="Calque_1-2" data-name="Calque 1">
    <ellipse class="cls-5" cx="171.95" cy="142.31" rx="171.95" ry="142.31"/>
    <ellipse class="cls-2" cx="72.34" cy="156.92" rx="41.22" ry="28.8"/>
    <ellipse class="cls-2" cx="294.78" cy="156.92" rx="41.22" ry="28.8"/>
    <circle cx="111.1" cy="89.37" r="38.75"/>
    <circle class="cls-3" cx="118.69" cy="93.57" r="22.42"/>
    <circle cx="243.39" cy="89.37" r="38.75"/>
    <circle class="cls-3" cx="253.55" cy="92.93" r="23.89"/>
    <path class="cls-4" d="M234.32,193.13c0,37.89,9.07,149.08,9.07,149.08-15.25,0-111.25-109.49-111.25-147.39s5.42-65.45,50.8-65.45,51.38,25.87,51.38,63.76Z"/>
    <line class="cls-1" x1="72.34" y1="128.12" x2="38.94" y2="173.79"/>
    <line class="cls-1" x1="89.05" y1="134.09" x2="55.64" y2="179.75"/>
    <line class="cls-1" x1="112.98" y1="134.09" x2="79.57" y2="179.75"/>
    <line class="cls-1" x1="291.16" y1="125.14" x2="257.75" y2="170.8"/>
    <line class="cls-1" x1="307.87" y1="131.11" x2="274.46" y2="176.77"/>
    <line class="cls-1" x1="331.8" y1="131.11" x2="298.39" y2="176.77"/>
  </g>
</svg>